# xmcd
#
# Track frame offsets: 
#        150
#        12805
#        25937
#        37365
#        51227
#        62862
#        74262
#        85215
#        99275
#        113145
#        124777
#        137442
#        146940
#        158172
#        166895
#        176825
#
# Disc length: 2549 seconds
#
# Revision: 0
# Processed by: cddbd v1.5.1PL2 Copyright (c) Steve Scherf et al.
# Submitted via: ExactAudioCopy v0.95b2
#
DISCID=e009f310
DTITLE=Judy Garland - Judy Garland
DYEAR=1900
DGENRE=Country
TTITLE0=Over The Rainbow
TTITLE1=Fascinating Rhythm
TTITLE2=Cry Baby Cry
TTITLE3=Swing Mister Charlie
TTITLE4=It Never Rains
TTITLE5=Friendship
TTITLE6=It's A Great Day For The Irish
TTITLE7=I Got Rhythm
TTITLE8=Buds Won't Bud
TTITLE9=When You Wore A Tulip
TTITLE10=Embraceable You
TTITLE11=Good Morning
TTITLE12=F.D.R.Jones
TTITLE13=I'm Just Wild About Harry
TTITLE14=Swanee
TTITLE15=You Made Me Love You
EXTD=
EXTT0=
EXTT1=
EXTT2=
EXTT3=
EXTT4=
EXTT5=
EXTT6=
EXTT7=
EXTT8=
EXTT9=
EXTT10=
EXTT11=
EXTT12=
EXTT13=
EXTT14=
EXTT15=
PLAYORDER=
